<svg width="862" height="529" viewBox="0 0 862 529" fill="none" xmlns="http://www.w3.org/2000/svg">
<path d="M11.2796 244.059C12.8723 275.115 816.1 126.088 815.957 110.793C815.813 95.4979 848.188 250.24 848.188 250.24L45.8002 413.899C45.8002 413.899 9.68693 213.003 11.2796 244.059Z" fill="#6E031A"/>
<path d="M548.972 3.17179C496.055 3.66824 448.934 29.8401 419.776 69.5854C404.505 49.5195 384.767 33.2896 362.128 22.184C339.489 11.0783 314.573 5.4026 289.358 5.60743C199.604 6.44948 127.493 80.2219 128.34 170.56C128.667 205.351 134.523 237.458 144.451 267.188C192.015 412.934 335.213 499.013 405.896 522.325C415.869 525.741 432.241 525.587 442.149 521.985C512.382 497.351 653.94 408.6 698.761 261.988C708.129 232.077 713.382 199.865 713.056 165.075C712.208 74.7362 638.726 2.32974 548.972 3.17179Z" fill="#FF0101"/>
<path d="M15.3026 244.905C35.9532 285.748 784.657 155.421 810.551 114.368C836.446 73.3157 864.953 310.765 838.424 284.173C811.895 257.58 60.6954 416.158 43.1753 414.709C25.6552 413.261 -5.34804 204.062 15.3026 244.905Z" fill="#514947"/>
<path d="M173.727 285.885C170.284 288.049 167.8 290.849 166.273 294.284C164.801 297.709 164.43 301.603 165.159 305.967C165.5 308.011 165.933 309.414 166.458 310.178C166.974 310.887 167.241 311.297 167.26 311.407C164.277 311.905 161.939 311.671 160.244 310.705C158.596 309.675 157.532 307.724 157.052 304.851C156.461 301.316 157.325 297.652 159.644 293.858C162.009 290 165.285 286.67 169.473 283.87C173.651 281.014 178.005 279.208 182.534 278.452C183.308 278.322 184.421 278.193 185.876 278.064L184.698 303.639L196.877 301.605L198.055 276.029L209.986 274.036L207.166 338.21L195.235 340.203L196.659 307.943L184.48 309.978L183.056 342.238L171.125 344.231L173.727 285.885ZM227.965 335.246C224.817 335.772 222.013 335.133 219.554 333.33C217.096 331.526 215.483 328.332 214.717 323.748C214.034 319.66 214.12 315.246 214.975 310.504C215.875 305.698 217.669 301.481 220.355 297.853C223.088 294.16 226.692 291.94 231.166 291.192C233.43 290.814 235.18 290.919 236.413 291.508C237.647 292.097 238.37 293.026 238.583 294.297L238.679 294.877L238.857 290.333L250.788 288.34L249.529 317.506C249.446 318.372 249.483 319.274 249.64 320.213C250.037 322.588 251.368 323.586 253.632 323.208C255.179 322.95 256.385 322.01 257.249 320.389C258.169 318.76 258.767 316.729 259.042 314.299L262.522 313.717C261.475 320.024 259.612 324.508 256.934 327.17C254.302 329.767 251.467 331.32 248.429 331.827C246.11 332.215 244.126 331.893 242.477 330.863C240.875 329.768 239.728 328.001 239.037 325.561C237.813 328.093 236.327 330.244 234.579 332.012C232.876 333.716 230.672 334.794 227.965 335.246ZM232.008 326.31C233.389 326.079 234.636 325.218 235.749 323.726C236.909 322.169 237.548 320.217 237.666 317.87L238.515 298.481C238.395 297.763 238.004 297.119 237.341 296.548C236.668 295.922 235.752 295.706 234.592 295.9C232.383 296.269 230.611 297.899 229.277 300.791C227.934 303.627 227.07 306.951 226.685 310.762C226.291 314.518 226.324 317.778 226.786 320.539C227.247 323.301 227.929 325.004 228.831 325.648C229.789 326.283 230.848 326.503 232.008 326.31ZM260.414 283.581L272.345 281.588L272.057 288.023C274.422 285.186 277.455 283.459 281.156 282.841C284.249 282.324 286.877 282.935 289.042 284.674C291.206 286.414 292.675 289.603 293.451 294.243C294.18 298.606 294.283 303.131 293.76 307.817C293.227 312.448 291.705 316.592 289.193 320.248C286.672 323.848 282.926 326.064 277.955 326.894C274.42 327.485 271.907 326.883 270.414 325.088L269.483 346.024L257.471 351.097L260.414 283.581ZM274.182 320.115C276.834 319.672 278.808 318.065 280.105 315.294C281.457 312.513 282.234 309.345 282.435 305.792C282.682 302.174 282.557 298.873 282.058 295.89C281.292 291.306 279.529 289.244 276.767 289.706C275.773 289.872 274.811 290.402 273.881 291.295C273.007 292.179 272.289 293.321 271.728 294.721L270.716 318.736C271.37 319.932 272.525 320.392 274.182 320.115ZM299.17 277.106L311.101 275.113L310.813 281.548C313.178 278.712 316.211 276.984 319.912 276.366C323.005 275.849 325.633 276.461 327.798 278.2C329.962 279.939 331.431 283.128 332.206 287.768C332.935 292.132 333.038 296.656 332.515 301.343C331.983 305.974 330.461 310.117 327.949 313.773C325.428 317.374 321.682 319.589 316.711 320.42C313.176 321.01 310.662 320.408 309.17 318.614L308.239 339.549L296.227 344.622L299.17 277.106ZM312.938 313.641C315.59 313.198 317.564 311.591 318.861 308.819C320.213 306.038 320.99 302.871 321.191 299.317C321.438 295.699 321.313 292.398 320.814 289.416C320.048 284.831 318.285 282.77 315.523 283.231C314.529 283.397 313.567 283.927 312.637 284.82C311.763 285.705 311.045 286.846 310.484 288.246L309.472 312.261C310.126 313.458 311.281 313.918 312.938 313.641ZM355.447 334.728C352.851 335.162 350.416 334.689 348.141 333.309C345.931 331.975 344.61 330.01 344.176 327.414C343.77 324.983 344.045 322.893 345.002 321.144C345.959 319.394 347.33 317.916 349.115 316.709C350.901 315.503 353.34 314.13 356.433 312.591L356.652 308.807C354.371 312.482 351.269 314.646 347.347 315.302C344.696 315.744 342.404 315.276 340.47 313.896C338.591 312.506 337.375 310.154 336.821 306.84C336.591 305.459 336.512 303.627 336.584 301.344L337.775 273.808L349.706 271.814L348.447 300.981C348.392 301.671 348.424 302.375 348.544 303.093C348.95 305.524 349.982 306.6 351.639 306.324C353.185 306.065 354.405 305.209 355.297 303.754C356.18 302.244 356.764 300.301 357.049 297.925L358.24 270.389L370.253 268.382L368.173 318.124C367.954 323.611 366.607 327.612 364.132 330.126C361.711 332.632 358.817 334.165 355.447 334.728ZM352.31 327.673C353.304 327.507 354.155 326.825 354.864 325.628C355.581 324.486 356 322.742 356.118 320.394L356.296 315.339C353.535 316.823 351.464 318.361 350.083 319.954C348.703 321.547 348.188 323.394 348.539 325.492C348.65 326.155 349.083 326.708 349.838 327.149C350.602 327.646 351.426 327.821 352.31 327.673ZM411.206 305.655C406.18 306.495 402.138 305.751 399.081 303.423C396.079 301.085 394.227 297.818 393.526 293.62C393.027 290.637 393.137 287.553 393.853 284.367C394.616 281.117 395.968 278.166 397.91 275.514C399.851 272.862 402.304 270.891 405.268 269.601C403.353 268.672 401.838 267.42 400.723 265.846C399.6 264.217 398.876 262.436 398.553 260.503C398.073 257.631 398.376 254.684 399.461 251.664C400.602 248.635 402.41 246.033 404.885 243.86C407.407 241.622 410.353 240.221 413.722 239.658C417.202 239.077 420.198 239.513 422.712 240.967C425.226 242.42 426.755 244.777 427.3 248.035C427.706 250.466 427.44 252.611 426.501 254.471C425.563 256.331 424.265 257.399 422.608 257.676C421.117 257.925 419.694 257.397 418.341 256.09C419.279 255.592 419.983 254.538 420.452 252.927C420.921 251.315 421.031 249.764 420.782 248.273C420.514 246.671 419.879 245.585 418.875 245.014C417.862 244.389 416.72 244.182 415.45 244.394C413.848 244.662 412.481 245.486 411.349 246.868C410.264 248.185 409.514 249.815 409.1 251.757C408.678 253.645 408.628 255.555 408.951 257.488C409.394 260.14 410.476 262.372 412.198 264.185C413.912 265.942 416.236 266.945 419.173 267.192C416.458 268.271 414.148 270.076 412.243 272.608C410.338 275.141 408.991 277.949 408.2 281.034C407.4 284.063 407.217 286.876 407.651 289.472C408.066 291.957 409.038 293.867 410.567 295.201C412.151 296.527 414.269 296.968 416.92 296.525C419.682 296.063 422.429 294.838 425.163 292.848C427.942 290.794 429.833 288.349 430.836 285.513L432.88 286.023C431.519 291.133 428.837 295.471 424.834 299.035C420.83 302.599 416.288 304.806 411.206 305.655ZM463.153 295.955C459.783 296.518 457.15 296.049 455.253 294.549C453.402 292.985 452.255 290.877 451.812 288.226C451.618 287.066 451.54 285.745 451.576 284.262C451.603 282.725 451.639 281.243 451.685 279.816C451.785 278.38 451.859 277.459 451.904 277.054C452.023 275.047 452.119 273.072 452.192 271.129C452.265 269.187 452.205 267.636 452.011 266.476C451.54 263.659 450.311 262.416 448.322 262.749C446.886 262.988 445.736 263.919 444.871 265.539C443.997 267.105 443.418 269.075 443.133 271.451L441.942 298.987L430.012 300.98L431.873 258.087L443.804 256.094L443.612 260.555C445.857 257 448.83 254.914 452.531 254.295C455.348 253.825 457.714 254.224 459.629 255.494C461.545 256.764 462.766 258.973 463.292 262.121C463.559 263.723 463.666 265.551 463.611 267.604C463.548 269.601 463.392 272.069 463.145 275.006C462.989 276.792 462.856 278.546 462.746 280.267C462.682 281.924 462.729 283.222 462.886 284.161C463.07 285.266 463.462 286.081 464.061 286.605C464.659 287.13 465.566 287.291 466.781 287.088C468.438 286.811 469.667 286.009 470.467 284.683C471.259 283.302 471.944 281.286 472.523 278.634L476.002 278.053C474.974 284.47 473.282 288.954 470.926 291.505C468.616 293.992 466.025 295.475 463.153 295.955ZM486.921 291.984C482.834 292.667 479.483 292.148 476.868 290.427C474.243 288.651 472.552 285.499 471.796 280.97C471.159 277.158 471.203 272.836 471.929 268.002C472.71 263.16 474.48 258.804 477.24 254.937C480.047 251.004 484.019 248.609 489.155 247.751C492.469 247.197 494.937 247.523 496.558 248.729C498.234 249.925 499.256 251.628 499.625 253.837C499.948 255.77 499.783 257.331 499.13 258.519C498.477 259.706 497.515 260.407 496.245 260.619C495.306 260.776 494.284 260.606 493.179 260.109C493.537 258.176 493.596 256.491 493.356 255.055C493.181 254.005 492.849 253.209 492.361 252.666C491.873 252.123 491.242 251.916 490.469 252.045C488.812 252.322 487.381 253.952 486.176 256.936C484.971 259.919 484.167 263.431 483.763 267.473C483.36 271.515 483.417 275.082 483.933 278.175C484.385 280.882 485.164 282.654 486.269 283.491C487.365 284.273 488.962 284.489 491.061 284.138C494.044 283.64 496.469 282.525 498.338 280.794C500.261 279.053 502.258 276.562 504.328 273.32L507.145 272.85C502.721 284.092 495.98 290.47 486.921 291.984ZM518.94 286.464C514.853 287.147 511.446 286.638 508.72 284.935C505.995 283.233 504.253 280.118 503.497 275.588C502.869 271.832 502.946 267.533 503.726 262.69C504.507 257.847 506.333 253.483 509.204 249.597C512.065 245.655 516.092 243.251 521.284 242.383C528.354 241.202 532.628 245.031 534.104 253.868L534.118 253.951C534.293 253.978 534.601 253.955 535.043 253.881C536.866 253.577 538.886 252.757 541.104 251.421C543.313 250.03 545.269 248.483 546.972 246.779L548.091 248.891C546.775 250.871 544.921 252.685 542.528 254.334C540.181 255.919 537.53 257.213 534.575 258.218C534.973 263.318 534.574 267.898 533.379 271.959C532.184 276.019 530.321 279.311 527.79 281.835C525.259 284.358 522.309 285.901 518.94 286.464ZM521.008 278.454C522.334 278.233 523.535 277.265 524.611 275.553C525.679 273.785 526.493 271.52 527.053 268.757C527.604 265.94 527.833 262.893 527.74 259.615C526.193 259.533 525.254 258.498 524.922 256.509C524.543 254.245 525.15 252.61 526.743 251.606C526.328 249.802 525.844 248.605 525.291 248.016C524.729 247.372 523.896 247.142 522.791 247.327C520.969 247.631 519.423 249.252 518.153 252.189C516.884 255.127 516.034 258.533 515.603 262.409C515.171 266.285 515.191 269.632 515.662 272.449C516.105 275.1 516.708 276.845 517.473 277.682C518.228 278.464 519.406 278.722 521.008 278.454ZM551.483 281.198C548.832 281.641 546.539 281.172 544.605 279.792C542.727 278.403 541.511 276.051 540.957 272.737C540.726 271.356 540.647 269.524 540.72 267.241L541.911 239.704L553.841 237.711L552.582 266.877C552.555 267.733 552.601 268.52 552.721 269.238C553.1 271.503 554.117 272.497 555.774 272.22C557.321 271.962 558.54 271.105 559.433 269.65C560.316 268.14 560.9 266.197 561.184 263.822L562.375 236.285L574.306 234.292L573.047 263.458C572.964 264.324 573.001 265.226 573.158 266.165C573.343 267.269 573.725 268.029 574.305 268.443C574.931 268.793 575.852 268.866 577.067 268.663C578.614 268.404 579.829 267.52 580.712 266.01C581.65 264.491 582.266 262.571 582.56 260.251L586.04 259.669C584.993 265.976 583.13 270.46 580.452 273.122C577.82 275.719 574.985 277.272 571.947 277.779C569.572 278.176 567.556 277.831 565.898 276.746C564.296 275.651 563.14 273.828 562.43 271.278C561.06 274.63 559.417 277.034 557.503 278.489C555.644 279.935 553.637 280.838 551.483 281.198ZM615.021 270.583C611.651 271.146 609.018 270.677 607.121 269.178C605.27 267.613 604.123 265.505 603.68 262.854C603.486 261.694 603.407 260.373 603.444 258.891C603.471 257.353 603.507 255.871 603.552 254.444C603.653 253.008 603.727 252.087 603.772 251.682C603.891 249.675 603.987 247.7 604.06 245.758C604.133 243.815 604.073 242.264 603.879 241.104C603.408 238.287 602.179 237.045 600.19 237.377C598.754 237.617 597.604 238.547 596.739 240.168C595.865 241.733 595.286 243.704 595.001 246.079L593.81 273.616L581.88 275.609L583.741 232.716L595.672 230.723L595.48 235.183C597.725 231.629 600.698 229.542 604.399 228.924C607.216 228.453 609.582 228.853 611.497 230.123C613.413 231.392 614.633 233.601 615.159 236.75C615.427 238.352 615.534 240.179 615.479 242.232C615.416 244.23 615.26 246.697 615.013 249.634C614.857 251.42 614.724 253.174 614.614 254.896C614.55 256.553 614.597 257.851 614.754 258.79C614.938 259.895 615.33 260.709 615.928 261.234C616.527 261.758 617.434 261.919 618.649 261.716C620.306 261.439 621.535 260.638 622.335 259.312C623.127 257.93 623.812 255.914 624.391 253.262L627.87 252.681C626.842 259.098 625.15 263.582 622.794 266.133C620.484 268.62 617.893 270.103 615.021 270.583ZM635.144 267.221C632.493 267.664 630.2 267.196 628.266 265.815C626.388 264.426 625.171 262.074 624.618 258.76C624.387 257.379 624.308 255.547 624.381 253.264L625.463 229.152L622.728 229.609L622.838 226.184L625.572 225.727L626.147 213.879L638.132 210.173L637.502 223.734L642.473 222.904L642.364 226.328L637.393 227.159L636.243 252.9C636.161 253.766 636.198 254.668 636.355 255.607C636.539 256.712 636.922 257.471 637.502 257.885C638.128 258.235 639.049 258.308 640.264 258.105C641.866 257.837 643.246 256.925 644.406 255.369C645.556 253.758 646.255 251.824 646.502 249.568L649.982 248.987C648.935 255.294 646.99 259.792 644.146 262.481C641.293 265.115 638.292 266.695 635.144 267.221ZM660.878 262.922C656.79 263.605 653.439 263.086 650.824 261.365C648.199 259.59 646.509 256.437 645.752 251.908C645.115 248.097 645.16 243.774 645.885 238.941C646.611 234.107 648.381 229.752 651.197 225.875C654.003 221.943 658.002 219.543 663.195 218.675C669.27 217.66 672.751 219.804 673.637 225.107C674.154 228.2 673.745 231.192 672.411 234.083C671.078 236.975 669.081 239.466 666.421 241.557C663.752 243.592 660.779 244.997 657.502 245.772C657.668 247.447 657.797 248.561 657.89 249.114C658.342 251.82 659.12 253.592 660.225 254.429C661.321 255.212 662.919 255.427 665.018 255.077C668 254.578 670.426 253.463 672.294 251.732C674.217 249.991 676.214 247.5 678.284 244.259L681.101 243.788C676.677 255.031 669.936 261.409 660.878 262.922ZM657.5 241.684C659.525 241.232 661.339 240.191 662.94 238.561C664.596 236.922 665.806 234.988 666.569 232.76C667.388 230.522 667.608 228.271 667.23 226.007C666.851 223.742 665.972 222.725 664.591 222.956C662.602 223.288 660.932 225.356 659.58 229.158C658.284 232.952 657.59 237.127 657.5 241.684ZM679.458 216.725L691.388 214.732L691.169 220.049C692.771 218.078 694.243 216.526 695.587 215.393C696.986 214.251 698.569 213.532 700.336 213.237C702.104 212.942 703.586 213.319 704.783 214.368C706.036 215.407 706.805 216.783 707.091 218.496C707.359 220.098 707.069 221.594 706.223 222.984C705.377 224.375 704.014 225.227 702.136 225.54C700.921 225.744 700.047 225.606 699.512 225.127C699.024 224.584 698.577 223.779 698.172 222.711C697.886 222.021 697.633 221.524 697.412 221.22C697.191 220.916 696.859 220.801 696.417 220.875C695.257 221.069 694.305 221.484 693.559 222.119C692.86 222.69 691.972 223.662 690.895 225.034L689.527 257.625L677.596 259.618L679.458 216.725Z" fill="white"/>
</svg>
