<svg width="586" height="522" viewBox="0 0 586 522" fill="none" xmlns="http://www.w3.org/2000/svg">
<path d="M420.972 0.17179C368.055 0.668244 320.934 26.8401 291.776 66.5854C276.505 46.5195 256.767 30.2896 234.128 19.184C211.489 8.07828 186.573 2.4026 161.358 2.60743C71.604 3.44948 -0.507376 77.2219 0.340161 167.56C0.666558 202.351 6.52307 234.458 16.4506 264.188C64.0146 409.934 207.213 496.013 277.896 519.325C287.869 522.74 304.241 522.587 314.149 518.985C384.382 494.351 525.94 405.6 570.761 258.988C580.129 229.077 585.382 196.865 585.056 162.075C584.208 71.7362 510.726 -0.67026 420.972 0.17179Z" fill="#FF0101"/>
</svg>
